<svg width="25" height="19" viewBox="0 0 25 19" fill="none" xmlns="http://www.w3.org/2000/svg">
<path d="M22.7458 0.5H3.24579C1.98016 0.5 0.995789 1.53125 0.995789 2.75V16.25C0.995789 17.5156 1.98016 18.5 3.24579 18.5H22.7458C23.9645 18.5 24.9958 17.5156 24.9958 16.25V2.75C24.9958 1.53125 23.9645 0.5 22.7458 0.5ZM22.7458 2.75V4.67188C21.6677 5.5625 19.9802 6.875 16.4177 9.6875C15.6208 10.2969 14.0739 11.7969 12.9958 11.75C11.8708 11.7969 10.3239 10.2969 9.52704 9.6875C5.96454 6.875 4.27704 5.5625 3.24579 4.67188V2.75H22.7458ZM3.24579 16.25V7.57812C4.27704 8.42188 5.82391 9.64062 8.12079 11.4688C9.15204 12.2656 10.9802 14.0469 12.9958 14C14.9645 14.0469 16.7458 12.2656 17.8239 11.4688C20.1208 9.64062 21.6677 8.42188 22.7458 7.57812V16.25H3.24579Z" fill="white"/>
</svg>
