<svg width="25" height="24" viewBox="0 0 25 24" fill="none" xmlns="http://www.w3.org/2000/svg">
<path d="M12.5268 5.8125C9.09821 5.8125 6.36607 8.59821 6.36607 11.9732C6.36607 15.4018 9.09821 18.1339 12.5268 18.1339C15.9018 18.1339 18.6875 15.4018 18.6875 11.9732C18.6875 8.59821 15.9018 5.8125 12.5268 5.8125ZM12.5268 15.9911C10.3304 15.9911 8.50893 14.2232 8.50893 11.9732C8.50893 9.77679 10.2768 8.00893 12.5268 8.00893C14.7232 8.00893 16.4911 9.77679 16.4911 11.9732C16.4911 14.2232 14.7232 15.9911 12.5268 15.9911ZM20.3482 5.59821C20.3482 4.79464 19.7054 4.15179 18.9018 4.15179C18.0982 4.15179 17.4554 4.79464 17.4554 5.59821C17.4554 6.40179 18.0982 7.04464 18.9018 7.04464C19.7054 7.04464 20.3482 6.40179 20.3482 5.59821ZM24.4196 7.04464C24.3125 5.11607 23.8839 3.40179 22.4911 2.00893C21.0982 0.616071 19.3839 0.1875 17.4554 0.0803571C15.4732 -0.0267857 9.52679 -0.0267857 7.54464 0.0803571C5.61607 0.1875 3.95536 0.616071 2.50893 2.00893C1.11607 3.40179 0.6875 5.11607 0.580357 7.04464C0.473214 9.02679 0.473214 14.9732 0.580357 16.9554C0.6875 18.8839 1.11607 20.5446 2.50893 21.9911C3.95536 23.3839 5.61607 23.8125 7.54464 23.9196C9.52679 24.0268 15.4732 24.0268 17.4554 23.9196C19.3839 23.8125 21.0982 23.3839 22.4911 21.9911C23.8839 20.5446 24.3125 18.8839 24.4196 16.9554C24.5268 14.9732 24.5268 9.02679 24.4196 7.04464ZM21.8482 19.0446C21.4732 20.1161 20.6161 20.9196 19.5982 21.3482C17.9911 21.9911 14.2411 21.8304 12.5268 21.8304C10.7589 21.8304 7.00893 21.9911 5.45536 21.3482C4.38393 20.9196 3.58036 20.1161 3.15179 19.0446C2.50893 17.4911 2.66964 13.7411 2.66964 11.9732C2.66964 10.2589 2.50893 6.50893 3.15179 4.90179C3.58036 3.88393 4.38393 3.08036 5.45536 2.65179C7.00893 2.00893 10.7589 2.16964 12.5268 2.16964C14.2411 2.16964 17.9911 2.00893 19.5982 2.65179C20.6161 3.02679 21.4196 3.88393 21.8482 4.90179C22.4911 6.50893 22.3304 10.2589 22.3304 11.9732C22.3304 13.7411 22.4911 17.4911 21.8482 19.0446Z" fill="white"/>
</svg>
