<svg width="25" height="20" viewBox="0 0 25 20" fill="none" xmlns="http://www.w3.org/2000/svg">
<path d="M22.0577 4.96386C22.9971 4.24096 23.8425 3.37349 24.5 2.36145C23.6546 2.74699 22.6683 3.03614 21.682 3.13253C22.7153 2.50602 23.4667 1.54217 23.8425 0.337349C22.9031 0.915663 21.8229 1.3494 20.7427 1.59036C19.8033 0.578313 18.5352 0 17.1262 0C14.4022 0 12.1947 2.26506 12.1947 5.06024C12.1947 5.44578 12.2417 5.83133 12.3356 6.21687C8.24951 5.9759 4.58611 3.95181 2.14384 0.915663C1.72114 1.63855 1.4863 2.50602 1.4863 3.46988C1.4863 5.20482 2.3317 6.74699 3.69374 7.66265C2.8953 7.61446 2.09687 7.42169 1.43933 7.03614V7.08434C1.43933 9.54217 3.13014 11.5663 5.38454 12.0482C5.00881 12.1446 4.53914 12.241 4.11644 12.241C3.78767 12.241 3.50587 12.1928 3.1771 12.1446C3.78767 14.1687 5.61937 15.6145 7.77984 15.6627C6.08904 17.012 3.97554 17.8313 1.67417 17.8313C1.25147 17.8313 0.875734 17.7831 0.5 17.7349C2.66047 19.1807 5.24364 20 8.06164 20C17.1262 20 22.0577 12.3373 22.0577 5.63855C22.0577 5.39759 22.0577 5.20482 22.0577 4.96386Z" fill="white"/>
</svg>
