<svg width="553" height="296" viewBox="0 0 553 296" fill="none" xmlns="http://www.w3.org/2000/svg">
<path d="M2.79 47L10.726 0.252014H22.754L32.116 25.176L41.416 0.252014H53.444L61.38 47H49.29L45.26 20.092L34.224 47H29.388L18.91 20.092L14.88 47H2.79Z" fill="white"/>
<path d="M94.4977 29.64L89.0417 14.078L83.5857 29.64H94.4977ZM97.7217 38.878H80.3617L77.5717 47H64.6137L82.4077 0.252014H95.6757L113.47 47H100.512L97.7217 38.878Z" fill="white"/>
<path d="M130.939 21.146H133.233C135.63 21.146 137.469 20.65 138.751 19.658C140.032 18.666 140.673 17.24 140.673 15.38C140.673 13.52 140.032 12.094 138.751 11.102C137.469 10.11 135.63 9.61401 133.233 9.61401H130.939V21.146ZM157.661 47H142.533L130.939 29.02V47H118.787V0.252014H137.697C140.301 0.252014 142.574 0.644681 144.517 1.43001C146.459 2.17401 148.051 3.20735 149.291 4.53001C150.572 5.85268 151.523 7.38201 152.143 9.11802C152.804 10.854 153.135 12.714 153.135 14.698C153.135 18.2527 152.267 21.146 150.531 23.378C148.836 25.5687 146.315 27.0567 142.967 27.842L157.661 47Z" fill="white"/>
<path d="M174.896 0.252014V47H162.744V0.252014H174.896Z" fill="white"/>
<path d="M184.662 47V0.252014H196.814L219.258 28.834V0.252014H231.348V47H219.258L196.814 18.418V47H184.662Z" fill="white"/>
<path d="M267.75 10.544H253.304V18.356H266.944V28.648H253.304V36.708H267.75V47H241.152V0.252014H267.75V10.544Z" fill="white"/>
<path d="M38.564 97.876C35.7533 94.4453 32.2813 92.73 28.148 92.73C26.3293 92.73 24.6347 93.0607 23.064 93.722C21.5347 94.3833 20.212 95.2927 19.096 96.45C17.98 97.566 17.0913 98.9093 16.43 100.48C15.81 102.051 15.5 103.745 15.5 105.564C15.5 107.424 15.81 109.139 16.43 110.71C17.0913 112.281 17.98 113.645 19.096 114.802C20.2533 115.959 21.5967 116.869 23.126 117.53C24.6553 118.191 26.3087 118.522 28.086 118.522C31.9713 118.522 35.464 116.869 38.564 113.562V127.946L37.324 128.38C35.464 129.041 33.728 129.517 32.116 129.806C30.504 130.137 28.9127 130.302 27.342 130.302C24.118 130.302 21.018 129.703 18.042 128.504C15.1073 127.264 12.5033 125.549 10.23 123.358C7.998 121.126 6.2 118.501 4.836 115.484C3.472 112.425 2.79 109.098 2.79 105.502C2.79 101.906 3.45133 98.62 4.774 95.644C6.138 92.6267 7.936 90.0433 10.168 87.894C12.4413 85.7033 15.066 84.0087 18.042 82.81C21.018 81.57 24.1387 80.95 27.404 80.95C29.264 80.95 31.0827 81.1567 32.86 81.57C34.6787 81.942 36.58 82.5413 38.564 83.368V97.876Z" fill="white"/>
<path d="M57.5195 105.626C57.5195 107.486 57.8709 109.201 58.5735 110.772C59.2762 112.343 60.2269 113.707 61.4255 114.864C62.6242 116.021 64.0089 116.931 65.5795 117.592C67.1915 118.212 68.8862 118.522 70.6635 118.522C72.4409 118.522 74.1149 118.212 75.6855 117.592C77.2975 116.931 78.7029 116.021 79.9015 114.864C81.1415 113.707 82.1129 112.343 82.8155 110.772C83.5182 109.201 83.8695 107.486 83.8695 105.626C83.8695 103.766 83.5182 102.051 82.8155 100.48C82.1129 98.9093 81.1415 97.5453 79.9015 96.388C78.7029 95.2307 77.2975 94.342 75.6855 93.722C74.1149 93.0607 72.4409 92.73 70.6635 92.73C68.8862 92.73 67.1915 93.0607 65.5795 93.722C64.0089 94.342 62.6242 95.2307 61.4255 96.388C60.2269 97.5453 59.2762 98.9093 58.5735 100.48C57.8709 102.051 57.5195 103.766 57.5195 105.626ZM44.8095 105.626C44.8095 102.154 45.4502 98.93 46.7315 95.954C48.0129 92.9367 49.7902 90.312 52.0635 88.08C54.3369 85.848 57.0442 84.112 60.1855 82.872C63.3682 81.5907 66.8609 80.95 70.6635 80.95C74.4249 80.95 77.8969 81.5907 81.0795 82.872C84.2622 84.112 86.9902 85.848 89.2635 88.08C91.5782 90.312 93.3762 92.9367 94.6575 95.954C95.9389 98.93 96.5795 102.154 96.5795 105.626C96.5795 109.098 95.9389 112.343 94.6575 115.36C93.3762 118.336 91.5782 120.94 89.2635 123.172C86.9902 125.404 84.2622 127.161 81.0795 128.442C77.8969 129.682 74.4249 130.302 70.6635 130.302C66.8609 130.302 63.3682 129.682 60.1855 128.442C57.0442 127.161 54.3369 125.404 52.0635 123.172C49.7902 120.94 48.0129 118.336 46.7315 115.36C45.4502 112.343 44.8095 109.098 44.8095 105.626Z" fill="white"/>
<path d="M104.255 129V82.252H116.407L138.851 110.834V82.252H150.941V129H138.851L116.407 100.418V129H104.255Z" fill="white"/>
<path d="M186.414 94.218C185.091 93.1433 183.768 92.358 182.446 91.862C181.123 91.3247 179.842 91.056 178.602 91.056C177.031 91.056 175.75 91.428 174.758 92.172C173.766 92.916 173.27 93.8873 173.27 95.086C173.27 95.9127 173.518 96.5947 174.014 97.132C174.51 97.6694 175.15 98.1447 175.936 98.558C176.762 98.93 177.672 99.2607 178.664 99.55C179.697 99.8393 180.71 100.149 181.702 100.48C185.67 101.803 188.563 103.58 190.382 105.812C192.242 108.003 193.172 110.875 193.172 114.43C193.172 116.827 192.758 118.997 191.932 120.94C191.146 122.883 189.968 124.557 188.398 125.962C186.868 127.326 184.967 128.38 182.694 129.124C180.462 129.909 177.92 130.302 175.068 130.302C169.157 130.302 163.68 128.545 158.638 125.032L163.846 115.236C165.664 116.848 167.462 118.047 169.24 118.832C171.017 119.617 172.774 120.01 174.51 120.01C176.494 120.01 177.961 119.555 178.912 118.646C179.904 117.737 180.4 116.703 180.4 115.546C180.4 114.843 180.276 114.244 180.028 113.748C179.78 113.211 179.366 112.735 178.788 112.322C178.209 111.867 177.444 111.454 176.494 111.082C175.584 110.71 174.468 110.297 173.146 109.842C171.575 109.346 170.025 108.809 168.496 108.23C167.008 107.61 165.664 106.804 164.466 105.812C163.308 104.82 162.358 103.58 161.614 102.092C160.911 100.563 160.56 98.6407 160.56 96.326C160.56 94.0113 160.932 91.924 161.676 90.064C162.461 88.1627 163.536 86.5507 164.9 85.228C166.305 83.864 168 82.81 169.984 82.066C172.009 81.322 174.262 80.95 176.742 80.95C179.056 80.95 181.474 81.2807 183.996 81.942C186.517 82.562 188.935 83.492 191.25 84.732L186.414 94.218Z" fill="white"/>
<path d="M227.426 92.544H212.98V100.356H226.62V110.648H212.98V118.708H227.426V129H200.828V82.252H227.426V92.544Z" fill="white"/>
<path d="M248.339 103.146H250.633C253.03 103.146 254.87 102.65 256.151 101.658C257.432 100.666 258.073 99.24 258.073 97.38C258.073 95.52 257.432 94.094 256.151 93.102C254.87 92.11 253.03 91.614 250.633 91.614H248.339V103.146ZM275.061 129H259.933L248.339 111.02V129H236.187V82.252H255.097C257.701 82.252 259.974 82.6447 261.917 83.43C263.86 84.174 265.451 85.2073 266.691 86.53C267.972 87.8527 268.923 89.382 269.543 91.118C270.204 92.854 270.535 94.714 270.535 96.698C270.535 100.253 269.667 103.146 267.931 105.378C266.236 107.569 263.715 109.057 260.367 109.842L275.061 129Z" fill="white"/>
<path d="M286.636 82.252L297.92 110.71L309.266 82.252H322.472L302.756 129H293.084L273.43 82.252H286.636Z" fill="white"/>
<path d="M349.097 111.64L343.641 96.078L338.185 111.64H349.097ZM352.321 120.878H334.961L332.171 129H319.213L337.007 82.252H350.275L368.069 129H355.111L352.321 120.878Z" fill="white"/>
<path d="M389.06 92.544V129H376.908V92.544H366.926V82.252H399.042V92.544H389.06Z" fill="white"/>
<path d="M416.599 82.252V129H404.447V82.252H416.599Z" fill="white"/>
<path d="M436.967 105.626C436.967 107.486 437.318 109.201 438.021 110.772C438.723 112.343 439.674 113.707 440.873 114.864C442.071 116.021 443.456 116.931 445.027 117.592C446.639 118.212 448.333 118.522 450.111 118.522C451.888 118.522 453.562 118.212 455.133 117.592C456.745 116.931 458.15 116.021 459.349 114.864C460.589 113.707 461.56 112.343 462.263 110.772C462.965 109.201 463.317 107.486 463.317 105.626C463.317 103.766 462.965 102.051 462.263 100.48C461.56 98.9093 460.589 97.5453 459.349 96.388C458.15 95.2307 456.745 94.342 455.133 93.722C453.562 93.0607 451.888 92.73 450.111 92.73C448.333 92.73 446.639 93.0607 445.027 93.722C443.456 94.342 442.071 95.2307 440.873 96.388C439.674 97.5453 438.723 98.9093 438.021 100.48C437.318 102.051 436.967 103.766 436.967 105.626ZM424.257 105.626C424.257 102.154 424.897 98.93 426.179 95.954C427.46 92.9367 429.237 90.312 431.511 88.08C433.784 85.848 436.491 84.112 439.633 82.872C442.815 81.5907 446.308 80.95 450.111 80.95C453.872 80.95 457.344 81.5907 460.527 82.872C463.709 84.112 466.437 85.848 468.711 88.08C471.025 90.312 472.823 92.9367 474.105 95.954C475.386 98.93 476.027 102.154 476.027 105.626C476.027 109.098 475.386 112.343 474.105 115.36C472.823 118.336 471.025 120.94 468.711 123.172C466.437 125.404 463.709 127.161 460.527 128.442C457.344 129.682 453.872 130.302 450.111 130.302C446.308 130.302 442.815 129.682 439.633 128.442C436.491 127.161 433.784 125.404 431.511 123.172C429.237 120.94 427.46 118.336 426.179 115.36C424.897 112.343 424.257 109.098 424.257 105.626Z" fill="white"/>
<path d="M483.703 129V82.252H495.855L518.299 110.834V82.252H530.389V129H518.299L495.855 100.418V129H483.703Z" fill="white"/>
<path d="M4.898 211V164.252H17.05L39.494 192.834V164.252H51.584V211H39.494L17.05 182.418V211H4.898Z" fill="white"/>
<path d="M72.5352 187.626C72.5352 189.486 72.8865 191.201 73.5892 192.772C74.2918 194.343 75.2425 195.707 76.4412 196.864C77.6398 198.021 79.0245 198.931 80.5952 199.592C82.2072 200.212 83.9018 200.522 85.6792 200.522C87.4565 200.522 89.1305 200.212 90.7012 199.592C92.3132 198.931 93.7185 198.021 94.9172 196.864C96.1572 195.707 97.1285 194.343 97.8312 192.772C98.5338 191.201 98.8852 189.486 98.8852 187.626C98.8852 185.766 98.5338 184.051 97.8312 182.48C97.1285 180.909 96.1572 179.545 94.9172 178.388C93.7185 177.231 92.3132 176.342 90.7012 175.722C89.1305 175.061 87.4565 174.73 85.6792 174.73C83.9018 174.73 82.2072 175.061 80.5952 175.722C79.0245 176.342 77.6398 177.231 76.4412 178.388C75.2425 179.545 74.2918 180.909 73.5892 182.48C72.8865 184.051 72.5352 185.766 72.5352 187.626ZM59.8252 187.626C59.8252 184.154 60.4658 180.93 61.7472 177.954C63.0285 174.937 64.8058 172.312 67.0792 170.08C69.3525 167.848 72.0598 166.112 75.2012 164.872C78.3838 163.591 81.8765 162.95 85.6792 162.95C89.4405 162.95 92.9125 163.591 96.0952 164.872C99.2778 166.112 102.006 167.848 104.279 170.08C106.594 172.312 108.392 174.937 109.673 177.954C110.954 180.93 111.595 184.154 111.595 187.626C111.595 191.098 110.954 194.343 109.673 197.36C108.392 200.336 106.594 202.94 104.279 205.172C102.006 207.404 99.2778 209.161 96.0952 210.442C92.9125 211.682 89.4405 212.302 85.6792 212.302C81.8765 212.302 78.3838 211.682 75.2012 210.442C72.0598 209.161 69.3525 207.404 67.0792 205.172C64.8058 202.94 63.0285 200.336 61.7472 197.36C60.4658 194.343 59.8252 191.098 59.8252 187.626Z" fill="white"/>
<path d="M131.423 185.146H133.717C136.114 185.146 137.954 184.65 139.235 183.658C140.516 182.666 141.157 181.24 141.157 179.38C141.157 177.52 140.516 176.094 139.235 175.102C137.954 174.11 136.114 173.614 133.717 173.614H131.423V185.146ZM158.145 211H143.017L131.423 193.02V211H119.271V164.252H138.181C140.785 164.252 143.058 164.645 145.001 165.43C146.944 166.174 148.535 167.207 149.775 168.53C151.056 169.853 152.007 171.382 152.627 173.118C153.288 174.854 153.619 176.714 153.619 178.698C153.619 182.253 152.751 185.146 151.015 187.378C149.32 189.569 146.799 191.057 143.451 191.842L158.145 211Z" fill="white"/>
<path d="M190.012 174.544H175.38V182.356H188.71V192.648H175.38V211H163.228V164.252H190.012V174.544Z" fill="white"/>
<path d="M207.797 187.626C207.797 189.486 208.148 191.201 208.851 192.772C209.554 194.343 210.504 195.707 211.703 196.864C212.902 198.021 214.286 198.931 215.857 199.592C217.469 200.212 219.164 200.522 220.941 200.522C222.718 200.522 224.392 200.212 225.963 199.592C227.575 198.931 228.98 198.021 230.179 196.864C231.419 195.707 232.39 194.343 233.093 192.772C233.796 191.201 234.147 189.486 234.147 187.626C234.147 185.766 233.796 184.051 233.093 182.48C232.39 180.909 231.419 179.545 230.179 178.388C228.98 177.231 227.575 176.342 225.963 175.722C224.392 175.061 222.718 174.73 220.941 174.73C219.164 174.73 217.469 175.061 215.857 175.722C214.286 176.342 212.902 177.231 211.703 178.388C210.504 179.545 209.554 180.909 208.851 182.48C208.148 184.051 207.797 185.766 207.797 187.626ZM195.087 187.626C195.087 184.154 195.728 180.93 197.009 177.954C198.29 174.937 200.068 172.312 202.341 170.08C204.614 167.848 207.322 166.112 210.463 164.872C213.646 163.591 217.138 162.95 220.941 162.95C224.702 162.95 228.174 163.591 231.357 164.872C234.54 166.112 237.268 167.848 239.541 170.08C241.856 172.312 243.654 174.937 244.935 177.954C246.216 180.93 246.857 184.154 246.857 187.626C246.857 191.098 246.216 194.343 244.935 197.36C243.654 200.336 241.856 202.94 239.541 205.172C237.268 207.404 234.54 209.161 231.357 210.442C228.174 211.682 224.702 212.302 220.941 212.302C217.138 212.302 213.646 211.682 210.463 210.442C207.322 209.161 204.614 207.404 202.341 205.172C200.068 202.94 198.29 200.336 197.009 197.36C195.728 194.343 195.087 191.098 195.087 187.626Z" fill="white"/>
<path d="M266.685 164.252V200.708H281.255V211H254.533V164.252H266.685Z" fill="white"/>
<path d="M299.683 183.534L314.501 164.252H329.505L310.967 186.386L331.241 211H315.493L299.683 190.726V211H287.531V164.252H299.683V183.534Z" fill="white"/>
<path d="M33.0586 281.647H13.0479L7.84082 293H0.242188L23.3711 243.321L45.6826 293H37.9629L33.0586 281.647ZM30.1826 275.018L23.25 259.124L15.9844 275.018H30.1826Z" fill="white"/>
<path d="M90.118 248.771V257.126C86.0411 253.715 81.823 252.01 77.4637 252.01C72.6603 252.01 68.6137 253.735 65.324 257.187C62.0141 260.618 60.3592 264.815 60.3592 269.78C60.3592 274.685 62.0141 278.822 65.324 282.192C68.6339 285.563 72.6906 287.248 77.4939 287.248C79.9764 287.248 82.0854 286.844 83.8211 286.037C84.7898 285.633 85.7889 285.089 86.8182 284.402C87.8676 283.716 88.9676 282.889 90.118 281.92V290.427C86.0815 292.707 81.8432 293.848 77.4031 293.848C70.7228 293.848 65.0213 291.517 60.2986 286.854C55.5962 282.152 53.2449 276.481 53.2449 269.841C53.2449 263.887 55.2127 258.579 59.1482 253.917C63.992 248.205 70.2586 245.35 77.948 245.35C82.146 245.35 86.2026 246.49 90.118 248.771Z" fill="white"/>
<path d="M118.145 252.888V293H111.091V252.888H100.344V246.258H128.862V252.888H118.145Z" fill="white"/>
<path d="M148.413 246.258V293H141.359V246.258H148.413Z" fill="white"/>
<path d="M163.513 269.417C163.513 262.838 165.925 257.187 170.748 252.464C175.552 247.741 181.324 245.38 188.065 245.38C194.725 245.38 200.436 247.761 205.199 252.524C209.983 257.287 212.374 263.009 212.374 269.689C212.374 276.41 209.973 282.112 205.169 286.794C200.346 291.496 194.523 293.848 187.701 293.848C181.667 293.848 176.248 291.759 171.445 287.581C166.157 282.959 163.513 276.905 163.513 269.417ZM170.627 269.508C170.627 274.674 172.363 278.923 175.834 282.253C179.285 285.583 183.271 287.248 187.792 287.248C192.696 287.248 196.834 285.553 200.204 282.162C203.575 278.731 205.26 274.553 205.26 269.629C205.26 264.644 203.595 260.466 200.265 257.096C196.955 253.705 192.858 252.01 187.974 252.01C183.11 252.01 179.003 253.705 175.653 257.096C172.302 260.446 170.627 264.583 170.627 269.508Z" fill="white"/>
<path d="M227.444 293V243.079L261.532 278.741V246.258H268.586V295.846L234.498 260.274V293H227.444Z" fill="white"/>
<path d="M335.387 268.66H354.702V270.204C354.702 273.716 354.288 276.824 353.461 279.528C352.653 282.031 351.291 284.372 349.374 286.552C345.034 291.436 339.515 293.878 332.814 293.878C326.275 293.878 320.674 291.517 316.012 286.794C311.35 282.051 309.019 276.36 309.019 269.72C309.019 262.938 311.391 257.187 316.133 252.464C320.876 247.721 326.648 245.35 333.45 245.35C337.103 245.35 340.514 246.096 343.682 247.59C346.71 249.083 349.686 251.505 352.613 254.855L347.587 259.669C343.753 254.563 339.081 252.01 333.571 252.01C328.626 252.01 324.479 253.715 321.129 257.126C317.778 260.476 316.103 264.674 316.103 269.72C316.103 274.927 317.97 279.215 321.704 282.586C325.195 285.714 328.979 287.278 333.056 287.278C336.528 287.278 339.646 286.108 342.411 283.767C345.176 281.405 346.72 278.58 347.043 275.29H335.387V268.66Z" fill="white"/>
<path d="M385.635 273.08L400.106 293H391.478L378.127 273.867H376.856V293H369.802V246.258H378.067C384.243 246.258 388.703 247.418 391.448 249.739C394.475 252.323 395.989 255.733 395.989 259.972C395.989 263.282 395.04 266.127 393.143 268.509C391.246 270.89 388.743 272.414 385.635 273.08ZM376.856 267.722H379.096C385.776 267.722 389.117 265.169 389.117 260.062C389.117 255.279 385.867 252.888 379.369 252.888H376.856V267.722Z" fill="white"/>
<path d="M409.939 269.417C409.939 262.838 412.35 257.187 417.174 252.464C421.977 247.741 427.75 245.38 434.49 245.38C441.151 245.38 446.862 247.761 451.625 252.524C456.408 257.287 458.8 263.009 458.8 269.689C458.8 276.41 456.398 282.112 451.595 286.794C446.771 291.496 440.949 293.848 434.127 293.848C428.093 293.848 422.674 291.759 417.87 287.581C412.583 282.959 409.939 276.905 409.939 269.417ZM417.053 269.508C417.053 274.674 418.789 278.923 422.26 282.253C425.711 285.583 429.697 287.248 434.218 287.248C439.122 287.248 443.26 285.553 446.63 282.162C450.001 278.731 451.686 274.553 451.686 269.629C451.686 264.644 450.021 260.466 446.691 257.096C443.381 253.705 439.284 252.01 434.4 252.01C429.536 252.01 425.429 253.705 422.078 257.096C418.728 260.446 417.053 264.583 417.053 269.508Z" fill="white"/>
<path d="M480.924 246.258V274.412C480.924 278.428 481.58 281.365 482.892 283.222C484.849 285.906 487.604 287.248 491.156 287.248C494.729 287.248 497.493 285.906 499.451 283.222C500.763 281.425 501.419 278.489 501.419 274.412V246.258H508.473V276.35C508.473 281.274 506.939 285.331 503.871 288.52C500.42 292.072 496.182 293.848 491.156 293.848C486.131 293.848 481.903 292.072 478.472 288.52C475.404 285.331 473.87 281.274 473.87 276.35V246.258H480.924Z" fill="white"/>
<path d="M532.958 274.019V293H525.904V246.258H533.896C537.812 246.258 540.768 246.53 542.766 247.075C544.785 247.62 546.561 248.649 548.095 250.163C550.779 252.787 552.121 256.097 552.121 260.093C552.121 264.371 550.688 267.762 547.822 270.265C544.956 272.767 541.091 274.019 536.227 274.019H532.958ZM532.958 267.479H535.592C542.07 267.479 545.309 264.987 545.309 260.002C545.309 255.178 541.969 252.767 535.289 252.767H532.958V267.479Z" fill="white"/>
</svg>
