<svg width="1440" height="870" viewBox="0 0 1440 870" fill="none" xmlns="http://www.w3.org/2000/svg">
<path d="M0 870H1440V633.824C1439.92 602.422 1437.9 571.102 1433.94 539.947C1430.43 501.292 1422.97 463.131 1411.67 426.001C1407.01 410.959 1401.9 396.082 1396.29 381.411C1388.83 360.394 1380.5 339.748 1371.22 319.596C1316.95 207.257 1234.07 109.548 1129.82 39.1192C1008.55 -42.8892 822.492 8.74727 742.535 150.057C657.713 299.98 679.321 458.145 817.709 535.084C873.707 566.239 1036.26 604.647 1053.58 484.973C1073.74 345.229 934.447 406.673 891.191 376.919C856.305 352.77 859.481 305.873 877.831 281.724C890.779 264.622 1069.5 189.33 1141.99 334.184C1212.91 475.824 1173.53 864.231 713.918 864.231C420.07 864.231 159.047 705.818 10.1853 461.112C7.09258 456.043 3.67 452.788 0 450.892" fill="white"/>
</svg>
